<mxfile host="app.diagrams.net" agent="Mozilla/5.0 (Windows NT 10.0; Win64; x64) AppleWebKit/537.36 (KHTML, like Gecko) Chrome/140.0.0.0 Safari/537.36 Edg/140.0.0.0" version="28.2.3">
  <diagram id="DCgf9vdghwZzJrHwLgmN" name="ページ1">
    <mxGraphModel dx="1297" dy="845" grid="1" gridSize="10" guides="1" tooltips="1" connect="1" arrows="1" fold="1" page="1" pageScale="1" pageWidth="827" pageHeight="1169" math="0" shadow="0">
      <root>
        <mxCell id="0" />
        <mxCell id="1" parent="0" />
        <mxCell id="2" value="職員" style="shape=umlActor;verticalLabelPosition=bottom;verticalAlign=top;html=1;outlineConnect=0;" parent="1" vertex="1">
          <mxGeometry x="100" y="170" width="30" height="60" as="geometry" />
        </mxCell>
        <mxCell id="VjTgb8HgbgOUZVkB5jtm-2" value="" style="shape=umlBoundary;whiteSpace=wrap;html=1;" vertex="1" parent="1">
          <mxGeometry x="320" y="240" width="75" height="60" as="geometry" />
        </mxCell>
        <mxCell id="VjTgb8HgbgOUZVkB5jtm-3" value="貸出履歴画面" style="text;html=1;align=center;verticalAlign=middle;whiteSpace=wrap;rounded=0;" vertex="1" parent="1">
          <mxGeometry x="335" y="300" width="60" height="30" as="geometry" />
        </mxCell>
        <mxCell id="VjTgb8HgbgOUZVkB5jtm-4" value="" style="endArrow=classic;html=1;rounded=0;entryX=0;entryY=0.5;entryDx=0;entryDy=0;entryPerimeter=0;" edge="1" parent="1" source="2" target="VjTgb8HgbgOUZVkB5jtm-2">
          <mxGeometry width="50" height="50" relative="1" as="geometry">
            <mxPoint x="340" y="290" as="sourcePoint" />
            <mxPoint x="210" y="200" as="targetPoint" />
          </mxGeometry>
        </mxCell>
        <mxCell id="VjTgb8HgbgOUZVkB5jtm-6" value="システムメニュー" style="text;html=1;align=center;verticalAlign=middle;whiteSpace=wrap;rounded=0;" vertex="1" parent="1">
          <mxGeometry x="335" y="155" width="60" height="30" as="geometry" />
        </mxCell>
        <mxCell id="VjTgb8HgbgOUZVkB5jtm-7" value="貸出履歴画面をクリックする" style="text;html=1;align=center;verticalAlign=middle;whiteSpace=wrap;rounded=0;" vertex="1" parent="1">
          <mxGeometry x="120" y="240" width="180" height="60" as="geometry" />
        </mxCell>
        <mxCell id="VjTgb8HgbgOUZVkB5jtm-8" value="" style="ellipse;shape=umlControl;whiteSpace=wrap;html=1;" vertex="1" parent="1">
          <mxGeometry x="572.5" y="100" width="61.25" height="70" as="geometry" />
        </mxCell>
        <mxCell id="VjTgb8HgbgOUZVkB5jtm-10" value="" style="shape=umlBoundary;whiteSpace=wrap;html=1;" vertex="1" parent="1">
          <mxGeometry x="320" y="95" width="75" height="60" as="geometry" />
        </mxCell>
        <mxCell id="VjTgb8HgbgOUZVkB5jtm-11" value="" style="endArrow=classic;html=1;rounded=0;entryX=0;entryY=0.5;entryDx=0;entryDy=0;entryPerimeter=0;" edge="1" parent="1" target="VjTgb8HgbgOUZVkB5jtm-10" source="2">
          <mxGeometry width="50" height="50" relative="1" as="geometry">
            <mxPoint x="130" y="60" as="sourcePoint" />
            <mxPoint x="210" y="55" as="targetPoint" />
          </mxGeometry>
        </mxCell>
        <mxCell id="VjTgb8HgbgOUZVkB5jtm-12" value="表示" style="text;html=1;align=center;verticalAlign=middle;whiteSpace=wrap;rounded=0;" vertex="1" parent="1">
          <mxGeometry x="573.75" y="170" width="60" height="30" as="geometry" />
        </mxCell>
        <mxCell id="VjTgb8HgbgOUZVkB5jtm-13" value="" style="endArrow=classic;html=1;rounded=0;entryX=0;entryY=0.429;entryDx=0;entryDy=0;entryPerimeter=0;exitX=0.981;exitY=0.622;exitDx=0;exitDy=0;exitPerimeter=0;" edge="1" parent="1" source="VjTgb8HgbgOUZVkB5jtm-10" target="VjTgb8HgbgOUZVkB5jtm-8">
          <mxGeometry width="50" height="50" relative="1" as="geometry">
            <mxPoint x="220" y="230" as="sourcePoint" />
            <mxPoint x="410" y="160" as="targetPoint" />
          </mxGeometry>
        </mxCell>
        <mxCell id="VjTgb8HgbgOUZVkB5jtm-14" value="" style="endArrow=classic;html=1;rounded=0;entryX=0.989;entryY=0.498;entryDx=0;entryDy=0;entryPerimeter=0;exitX=-0.01;exitY=0.574;exitDx=0;exitDy=0;exitPerimeter=0;" edge="1" parent="1" source="VjTgb8HgbgOUZVkB5jtm-8" target="VjTgb8HgbgOUZVkB5jtm-2">
          <mxGeometry width="50" height="50" relative="1" as="geometry">
            <mxPoint x="500" y="160" as="sourcePoint" />
            <mxPoint x="676" y="218" as="targetPoint" />
          </mxGeometry>
        </mxCell>
        <mxCell id="VjTgb8HgbgOUZVkB5jtm-15" value="履歴情報" style="text;html=1;align=center;verticalAlign=middle;whiteSpace=wrap;rounded=0;" vertex="1" parent="1">
          <mxGeometry x="572.5" y="300" width="60" height="30" as="geometry" />
        </mxCell>
        <mxCell id="VjTgb8HgbgOUZVkB5jtm-16" value="" style="ellipse;shape=umlControl;whiteSpace=wrap;html=1;" vertex="1" parent="1">
          <mxGeometry x="572.5" y="235" width="61.25" height="70" as="geometry" />
        </mxCell>
        <mxCell id="VjTgb8HgbgOUZVkB5jtm-17" value="" style="endArrow=classic;html=1;rounded=0;exitX=0.981;exitY=0.589;exitDx=0;exitDy=0;exitPerimeter=0;entryX=-0.022;entryY=0.585;entryDx=0;entryDy=0;entryPerimeter=0;" edge="1" parent="1" source="VjTgb8HgbgOUZVkB5jtm-2" target="VjTgb8HgbgOUZVkB5jtm-16">
          <mxGeometry width="50" height="50" relative="1" as="geometry">
            <mxPoint x="573" y="305" as="sourcePoint" />
            <mxPoint x="570" y="280" as="targetPoint" />
          </mxGeometry>
        </mxCell>
        <mxCell id="VjTgb8HgbgOUZVkB5jtm-18" value="取得する" style="text;html=1;align=center;verticalAlign=middle;whiteSpace=wrap;rounded=0;" vertex="1" parent="1">
          <mxGeometry x="460" y="280" width="60" height="30" as="geometry" />
        </mxCell>
        <mxCell id="VjTgb8HgbgOUZVkB5jtm-19" value="" style="ellipse;shape=umlControl;whiteSpace=wrap;html=1;" vertex="1" parent="1">
          <mxGeometry x="820" y="240" width="61.25" height="70" as="geometry" />
        </mxCell>
        <mxCell id="VjTgb8HgbgOUZVkB5jtm-20" value="" style="endArrow=classic;html=1;rounded=0;exitX=1.037;exitY=0.594;exitDx=0;exitDy=0;exitPerimeter=0;entryX=-0.015;entryY=0.574;entryDx=0;entryDy=0;entryPerimeter=0;" edge="1" parent="1" source="VjTgb8HgbgOUZVkB5jtm-16" target="VjTgb8HgbgOUZVkB5jtm-19">
          <mxGeometry width="50" height="50" relative="1" as="geometry">
            <mxPoint x="560" y="270" as="sourcePoint" />
            <mxPoint x="737" y="271" as="targetPoint" />
          </mxGeometry>
        </mxCell>
        <mxCell id="VjTgb8HgbgOUZVkB5jtm-21" value="利用者を一覧表示" style="text;html=1;align=center;verticalAlign=middle;whiteSpace=wrap;rounded=0;" vertex="1" parent="1">
          <mxGeometry x="820" y="310" width="60" height="30" as="geometry" />
        </mxCell>
        <mxCell id="VjTgb8HgbgOUZVkB5jtm-22" value="" style="endArrow=classic;html=1;rounded=0;exitX=0.5;exitY=1;exitDx=0;exitDy=0;entryX=0.498;entryY=0.114;entryDx=0;entryDy=0;entryPerimeter=0;" edge="1" parent="1" target="VjTgb8HgbgOUZVkB5jtm-24">
          <mxGeometry width="50" height="50" relative="1" as="geometry">
            <mxPoint x="366.2500000000002" y="330" as="sourcePoint" />
            <mxPoint x="366" y="410" as="targetPoint" />
          </mxGeometry>
        </mxCell>
        <mxCell id="VjTgb8HgbgOUZVkB5jtm-24" value="" style="ellipse;shape=umlControl;whiteSpace=wrap;html=1;" vertex="1" parent="1">
          <mxGeometry x="335" y="410" width="61.25" height="70" as="geometry" />
        </mxCell>
        <mxCell id="VjTgb8HgbgOUZVkB5jtm-25" value="登録" style="text;html=1;align=center;verticalAlign=middle;whiteSpace=wrap;rounded=0;" vertex="1" parent="1">
          <mxGeometry x="335" y="480" width="60" height="30" as="geometry" />
        </mxCell>
        <mxCell id="VjTgb8HgbgOUZVkB5jtm-26" value="" style="endArrow=classic;html=1;rounded=0;exitX=0.5;exitY=1;exitDx=0;exitDy=0;entryX=0.556;entryY=-0.039;entryDx=0;entryDy=0;entryPerimeter=0;" edge="1" parent="1" target="VjTgb8HgbgOUZVkB5jtm-27">
          <mxGeometry width="50" height="50" relative="1" as="geometry">
            <mxPoint x="364.6900000000002" y="500" as="sourcePoint" />
            <mxPoint x="364.44" y="580" as="targetPoint" />
          </mxGeometry>
        </mxCell>
        <mxCell id="VjTgb8HgbgOUZVkB5jtm-27" value="" style="shape=umlBoundary;whiteSpace=wrap;html=1;" vertex="1" parent="1">
          <mxGeometry x="321.25" y="585" width="75" height="60" as="geometry" />
        </mxCell>
        <mxCell id="VjTgb8HgbgOUZVkB5jtm-28" value="履歴登録完了画面" style="text;html=1;align=center;verticalAlign=middle;whiteSpace=wrap;rounded=0;" vertex="1" parent="1">
          <mxGeometry x="336.25" y="645" width="60" height="30" as="geometry" />
        </mxCell>
        <mxCell id="VjTgb8HgbgOUZVkB5jtm-29" value="" style="endArrow=classic;html=1;rounded=0;exitX=0.5;exitY=1;exitDx=0;exitDy=0;entryX=0.567;entryY=0;entryDx=0;entryDy=0;entryPerimeter=0;" edge="1" parent="1" source="VjTgb8HgbgOUZVkB5jtm-15" target="VjTgb8HgbgOUZVkB5jtm-30">
          <mxGeometry width="50" height="50" relative="1" as="geometry">
            <mxPoint x="603.2900000000002" y="340" as="sourcePoint" />
            <mxPoint x="630" y="420" as="targetPoint" />
          </mxGeometry>
        </mxCell>
        <mxCell id="VjTgb8HgbgOUZVkB5jtm-30" value="" style="shape=umlBoundary;whiteSpace=wrap;html=1;" vertex="1" parent="1">
          <mxGeometry x="557.5" y="430" width="75" height="60" as="geometry" />
        </mxCell>
        <mxCell id="VjTgb8HgbgOUZVkB5jtm-31" value="履歴を閲覧" style="text;html=1;align=center;verticalAlign=middle;whiteSpace=wrap;rounded=0;" vertex="1" parent="1">
          <mxGeometry x="563.75" y="490" width="77.5" height="30" as="geometry" />
        </mxCell>
      </root>
    </mxGraphModel>
  </diagram>
</mxfile>
